<svg 
 xmlns="http://www.w3.org/2000/svg"
 xmlns:xlink="http://www.w3.org/1999/xlink"
 width="15px" height="15px">
<path fill-rule="evenodd"  fill="rgb(239, 215, 124)"
 d="M13.625,15.000 L1.375,15.000 C0.616,15.000 -0.000,14.390 -0.000,13.647 L-0.000,3.014 C-0.000,2.285 0.602,1.692 1.335,1.670 L1.335,3.484 C1.335,4.305 2.015,4.965 2.854,4.965 L3.813,4.965 C4.651,4.965 5.340,4.305 5.340,3.484 L5.340,1.663 L9.659,1.663 L9.659,3.484 C9.659,4.305 10.349,4.965 11.188,4.965 L12.146,4.965 C12.984,4.965 13.665,4.305 13.665,3.484 L13.665,1.670 C14.398,1.692 15.000,2.285 15.000,3.014 L15.000,13.647 C15.000,14.389 14.383,15.000 13.625,15.000 ZM13.220,7.492 C13.220,7.171 12.954,6.911 12.625,6.911 L2.348,6.911 C2.020,6.911 1.754,7.171 1.754,7.492 L1.754,12.985 C1.754,13.306 2.020,13.566 2.348,13.566 L12.625,13.566 C12.954,13.566 13.220,13.306 13.220,12.985 L13.220,7.492 ZM11.144,12.773 L9.929,12.773 C9.737,12.773 9.581,12.621 9.581,12.433 L9.581,11.245 C9.581,11.057 9.737,10.904 9.929,10.904 L11.144,10.904 C11.336,10.904 11.492,11.057 11.492,11.245 L11.492,12.433 C11.492,12.621 11.336,12.773 11.144,12.773 ZM11.144,9.804 L9.929,9.804 C9.737,9.804 9.581,9.651 9.581,9.463 L9.581,8.275 C9.581,8.087 9.737,7.935 9.929,7.935 L11.144,7.935 C11.336,7.935 11.492,8.087 11.492,8.275 L11.492,9.463 C11.492,9.651 11.336,9.804 11.144,9.804 ZM8.108,12.773 L6.892,12.773 C6.700,12.773 6.544,12.621 6.544,12.433 L6.544,11.245 C6.544,11.057 6.700,10.904 6.892,10.904 L8.108,10.904 C8.300,10.904 8.456,11.057 8.456,11.245 L8.456,12.433 C8.456,12.621 8.300,12.773 8.108,12.773 ZM8.108,9.804 L6.892,9.804 C6.700,9.804 6.544,9.651 6.544,9.463 L6.544,8.275 C6.544,8.087 6.700,7.935 6.892,7.935 L8.108,7.935 C8.300,7.935 8.456,8.087 8.456,8.275 L8.456,9.463 C8.456,9.651 8.300,9.804 8.108,9.804 ZM5.071,12.773 L3.856,12.773 C3.664,12.773 3.508,12.621 3.508,12.433 L3.508,11.245 C3.508,11.057 3.664,10.904 3.856,10.904 L5.071,10.904 C5.263,10.904 5.419,11.057 5.419,11.245 L5.419,12.433 C5.419,12.621 5.263,12.773 5.071,12.773 ZM5.071,9.804 L3.856,9.804 C3.664,9.804 3.508,9.651 3.508,9.463 L3.508,8.275 C3.508,8.087 3.664,7.935 3.856,7.935 L5.071,7.935 C5.263,7.935 5.419,8.087 5.419,8.275 L5.419,9.463 C5.419,9.651 5.263,9.804 5.071,9.804 ZM12.123,3.993 L11.175,3.993 C10.888,3.993 10.654,3.765 10.654,3.484 L10.654,0.509 C10.654,0.228 10.888,-0.000 11.175,-0.000 L12.123,-0.000 C12.411,-0.000 12.644,0.228 12.644,0.509 L12.644,3.484 C12.644,3.765 12.411,3.993 12.123,3.993 ZM3.799,3.993 L2.851,3.993 C2.563,3.993 2.330,3.765 2.330,3.484 L2.330,0.509 C2.330,0.228 2.563,-0.000 2.851,-0.000 L3.799,-0.000 C4.086,-0.000 4.320,0.228 4.320,0.509 L4.320,3.484 C4.320,3.765 4.086,3.993 3.799,3.993 Z"/>
</svg>