<svg 
 xmlns="http://www.w3.org/2000/svg"
 xmlns:xlink="http://www.w3.org/1999/xlink"
 width="21px" height="17px">
<path fill-rule="evenodd"  fill="rgb(242, 223, 193)"
 d="M20.815,15.879 L13.872,8.500 L20.815,1.121 C20.930,1.377 21.000,1.660 21.000,1.961 L21.000,15.038 C21.000,15.340 20.930,15.623 20.815,15.879 ZM12.567,8.038 C12.567,8.038 12.567,8.038 12.567,8.038 L10.459,10.191 L1.055,0.196 C1.295,0.074 1.562,-0.000 1.846,-0.000 L19.154,-0.000 C19.438,-0.000 19.705,0.074 19.945,0.197 L12.567,8.037 L12.567,8.038 ZM0.185,15.879 C0.070,15.623 -0.000,15.340 -0.000,15.038 L-0.000,1.961 C-0.000,1.659 0.070,1.377 0.185,1.121 L7.128,8.500 L0.185,15.879 ZM10.024,11.578 C10.144,11.705 10.302,11.769 10.459,11.769 C10.616,11.769 10.774,11.705 10.894,11.578 L13.002,9.425 L19.945,16.803 C19.704,16.926 19.438,17.000 19.154,17.000 L1.846,17.000 C1.561,17.000 1.295,16.926 1.055,16.803 L7.998,9.425 L10.024,11.578 Z"/>
</svg>