<svg 
 xmlns="http://www.w3.org/2000/svg"
 xmlns:xlink="http://www.w3.org/1999/xlink"
 width="16px" height="15px">
<path fill-rule="evenodd"  fill="rgb(204, 168, 112)"
 d="M15.359,10.864 C14.852,11.772 13.550,12.917 12.435,12.696 C11.683,12.550 11.216,11.846 11.011,10.659 C10.455,11.482 9.725,12.008 8.630,12.331 C8.314,12.425 7.984,12.470 7.649,12.470 C6.809,12.470 5.938,12.184 5.188,11.642 C4.027,10.802 3.333,9.487 3.333,8.123 C3.333,4.548 6.324,3.251 8.333,3.251 C9.465,3.251 10.690,3.698 11.142,4.351 C11.210,4.056 11.256,3.748 11.351,3.473 C11.409,3.303 11.595,3.209 11.772,3.267 C11.947,3.324 12.041,3.508 11.983,3.678 C11.302,5.669 11.397,8.313 11.597,10.181 C11.681,10.968 11.917,11.933 12.566,12.059 C13.323,12.206 14.376,11.264 14.774,10.553 C15.156,9.870 15.333,8.995 15.333,7.798 C15.333,6.833 15.140,5.896 14.759,5.014 C14.382,4.161 13.852,3.397 13.184,2.746 C12.517,2.096 11.733,1.579 10.855,1.210 C9.048,0.470 6.954,0.469 5.143,1.211 C4.267,1.579 3.483,2.096 2.816,2.746 C2.148,3.397 1.618,4.161 1.239,5.016 C0.860,5.896 0.667,6.833 0.667,7.798 C0.667,8.763 0.860,9.699 1.240,10.582 C1.618,11.435 2.148,12.199 2.816,12.850 C3.483,13.500 4.267,14.017 5.145,14.386 C5.314,14.456 5.392,14.648 5.319,14.812 C5.265,14.935 5.142,15.009 5.013,15.009 C4.969,15.009 4.924,15.000 4.882,14.982 C3.925,14.581 3.072,14.018 2.344,13.309 C1.617,12.600 1.039,11.768 0.627,10.837 C0.210,9.871 -0.000,8.850 -0.000,7.798 C-0.000,6.746 0.210,5.725 0.626,4.762 C1.039,3.828 1.617,2.996 2.344,2.287 C3.072,1.578 3.925,1.015 4.882,0.614 C6.863,-0.198 9.139,-0.197 11.116,0.613 C12.074,1.015 12.928,1.578 13.656,2.287 C14.383,2.996 14.961,3.828 15.373,4.759 C15.789,5.725 16.000,6.746 16.000,7.798 C16.000,9.108 15.796,10.082 15.359,10.864 ZM10.667,4.875 C10.667,4.508 9.576,3.900 8.333,3.900 C6.591,3.900 4.000,5.025 4.000,8.123 C4.000,9.282 4.593,10.402 5.586,11.120 C6.466,11.757 7.532,11.977 8.437,11.710 C9.563,11.377 10.198,10.876 10.704,9.923 C10.745,9.844 10.816,9.790 10.896,9.765 C10.772,8.396 10.716,6.740 10.950,5.179 C10.793,5.153 10.667,5.035 10.667,4.875 Z"/>
</svg>