<svg 
 xmlns="http://www.w3.org/2000/svg"
 xmlns:xlink="http://www.w3.org/1999/xlink"
 width="23px" height="23px">
<path fill-rule="evenodd"  fill="rgb(204, 168, 112)"
 d="M19.681,22.999 L15.590,22.999 C15.263,22.999 14.997,22.734 14.997,22.407 L14.997,14.910 C14.997,14.583 15.263,14.318 15.590,14.318 L17.234,14.318 L18.124,12.095 L15.590,12.095 C15.263,12.095 14.997,11.830 14.997,11.503 L14.997,8.776 C14.997,8.395 15.110,8.089 15.333,7.869 C15.711,7.494 16.252,7.497 16.779,7.502 L17.725,7.503 L17.725,5.279 L15.590,5.279 C13.661,5.279 12.091,6.848 12.091,8.776 L12.091,11.503 C12.091,11.830 11.825,12.095 11.498,12.095 L9.363,12.095 L9.363,14.318 L11.498,14.318 C11.825,14.318 12.091,14.583 12.091,14.910 L12.091,22.407 C12.091,22.734 11.825,22.999 11.498,22.999 L3.315,22.999 C1.484,22.999 -0.005,21.511 -0.005,19.680 L-0.005,3.324 C-0.005,1.495 1.484,0.006 3.315,0.006 L19.681,0.006 C21.512,0.006 23.001,1.495 23.001,3.324 L23.001,19.680 C23.001,21.511 21.512,22.999 19.681,22.999 ZM16.182,21.815 L19.681,21.815 C20.859,21.815 21.816,20.857 21.816,19.680 L21.816,3.324 C21.816,2.148 20.859,1.190 19.681,1.190 L3.315,1.190 C2.137,1.190 1.180,2.148 1.180,3.324 L1.180,19.680 C1.180,20.857 2.137,21.815 3.315,21.815 L10.906,21.815 L10.906,15.502 L8.770,15.502 C8.443,15.502 8.178,15.237 8.178,14.910 L8.178,11.503 C8.178,11.175 8.443,10.910 8.770,10.910 L10.906,10.910 L10.906,8.776 C10.906,6.195 13.007,4.095 15.590,4.095 L18.317,4.095 C18.644,4.095 18.910,4.360 18.910,4.687 L18.910,8.095 C18.910,8.422 18.644,8.687 18.317,8.687 L16.770,8.686 C16.582,8.686 16.306,8.683 16.186,8.713 C16.184,8.728 16.182,8.749 16.182,8.776 L16.182,10.910 L18.999,10.910 C19.196,10.910 19.380,11.008 19.490,11.171 C19.600,11.334 19.623,11.540 19.550,11.723 L18.186,15.130 C18.096,15.355 17.878,15.502 17.636,15.502 L16.182,15.502 L16.182,21.815 Z"/>
</svg>