<svg 
 xmlns="http://www.w3.org/2000/svg"
 xmlns:xlink="http://www.w3.org/1999/xlink"
 width="19px" height="19px">
<path fill-rule="evenodd"  fill="rgb(207, 207, 207)"
 d="M16.912,8.132 C16.599,8.433 16.423,8.408 15.827,7.999 C15.827,8.537 15.797,9.021 15.844,9.496 C15.859,9.643 16.058,9.823 16.215,9.897 C19.341,11.371 19.980,15.518 17.392,17.761 C15.892,19.062 14.160,19.355 12.337,18.554 C10.535,17.761 9.555,16.307 9.507,14.342 C9.458,12.337 10.413,10.859 12.205,9.957 C12.554,9.781 12.705,9.610 12.667,9.220 C12.629,8.834 12.658,8.441 12.658,8.083 C12.388,8.163 12.108,8.341 11.881,8.289 C11.634,8.232 11.423,7.975 11.219,7.781 C10.870,7.450 10.537,7.101 10.199,6.758 C9.914,6.470 9.911,6.178 10.198,5.890 C11.401,4.687 12.604,3.484 13.809,2.284 C14.094,1.999 14.391,1.998 14.678,2.284 C15.883,3.485 17.086,4.687 18.288,5.891 C18.574,6.177 18.572,6.472 18.286,6.759 C17.830,7.218 17.379,7.683 16.912,8.132 ZM14.229,12.649 C13.362,12.655 12.656,13.373 12.663,14.240 C12.670,15.105 13.390,15.812 14.257,15.805 C15.126,15.798 15.829,15.083 15.823,14.213 C15.816,13.349 15.096,12.643 14.229,12.649 ZM6.683,9.066 C6.401,9.194 6.305,9.338 6.322,9.636 C6.347,10.084 6.328,10.534 6.328,11.063 C6.709,11.063 7.062,11.065 7.415,11.062 C8.377,11.056 8.431,11.110 8.432,12.086 C8.432,12.568 8.437,13.050 8.430,13.531 C8.422,14.073 8.273,14.219 7.719,14.228 C7.271,14.235 6.823,14.229 6.328,14.229 C6.328,14.744 6.334,15.207 6.326,15.669 C6.318,16.147 6.150,16.324 5.671,16.333 C5.053,16.345 4.435,16.343 3.817,16.332 C3.339,16.324 3.166,16.145 3.159,15.671 C3.153,15.208 3.158,14.745 3.158,14.228 C2.666,14.228 2.218,14.232 1.771,14.227 C1.221,14.220 1.060,14.065 1.055,13.535 C1.051,12.918 1.058,12.301 1.057,11.684 C1.056,11.274 1.264,11.071 1.667,11.066 C2.146,11.061 2.626,11.065 3.160,11.065 C3.160,10.540 3.143,10.089 3.166,9.639 C3.181,9.346 3.098,9.197 2.810,9.067 C0.989,8.245 -0.071,6.508 -0.002,4.516 C0.078,2.179 2.028,0.175 4.381,0.012 C6.800,-0.156 8.988,1.513 9.404,3.841 C9.801,6.065 8.733,8.136 6.683,9.066 ZM4.732,3.164 C3.861,3.172 3.157,3.887 3.164,4.754 C3.171,5.619 3.891,6.327 4.757,6.321 C5.626,6.315 6.330,5.601 6.324,4.731 C6.319,3.868 5.595,3.156 4.732,3.164 Z"/>
</svg>