<svg 
 xmlns="http://www.w3.org/2000/svg"
 xmlns:xlink="http://www.w3.org/1999/xlink"
 width="19px" height="17px">
<path fill-rule="evenodd"  fill="rgb(207, 207, 207)"
 d="M16.215,16.998 C17.243,15.819 17.335,14.585 16.863,13.359 C16.628,12.747 16.093,12.242 15.691,11.685 C15.158,13.090 14.704,14.367 14.181,15.617 C13.994,16.064 13.693,16.498 13.337,16.831 C13.180,16.977 12.754,16.856 12.243,16.856 C14.229,14.606 14.673,12.272 13.451,9.717 C11.798,10.004 10.215,10.280 8.378,10.599 C8.378,11.956 8.397,13.426 8.367,14.895 C8.357,15.424 8.334,15.998 8.112,16.460 C7.998,16.698 7.433,16.733 6.941,16.753 C8.260,15.129 7.316,13.458 7.180,11.816 C7.124,12.071 7.063,12.325 7.014,12.580 C6.778,13.825 6.481,15.063 6.332,16.317 C6.228,17.201 5.709,16.991 5.157,16.931 C5.147,16.824 5.102,16.717 5.139,16.670 C6.464,14.958 6.098,13.000 5.963,11.096 C5.929,10.614 5.547,10.161 5.371,9.678 C5.152,9.081 4.827,8.469 4.820,7.860 C4.801,6.302 3.981,5.046 3.382,3.495 C2.527,3.782 1.760,4.092 0.962,4.278 C0.688,4.343 0.209,4.184 0.060,3.972 C-0.071,3.787 0.024,3.296 0.204,3.093 C0.748,2.480 1.411,1.966 1.967,1.361 C2.270,1.031 2.448,0.594 2.765,0.069 C2.762,0.070 2.944,-0.002 2.938,0.001 C3.492,0.404 3.985,0.707 4.409,1.083 C5.109,1.703 5.876,2.295 6.417,3.033 C7.690,4.773 9.469,5.305 11.530,5.308 C12.022,5.308 12.534,5.341 13.002,5.227 C14.649,4.825 16.160,5.347 17.623,5.905 C18.117,6.093 18.613,6.716 18.761,7.233 C19.267,9.005 18.896,10.755 18.358,12.568 C17.447,10.467 17.465,10.469 17.680,8.281 C17.730,7.774 17.613,7.251 17.562,6.592 C17.353,7.691 17.084,8.608 17.034,9.536 C16.993,10.283 17.190,11.048 17.334,11.795 C17.441,12.349 17.692,12.880 17.771,13.437 C17.865,14.097 17.908,14.779 17.851,15.441 C17.807,15.939 17.570,16.422 17.393,16.998 C17.091,16.998 16.752,16.998 16.215,16.998 Z"/>
</svg>