<svg 
 xmlns="http://www.w3.org/2000/svg"
 xmlns:xlink="http://www.w3.org/1999/xlink"
 width="17px" height="19px">
<path fill-rule="evenodd"  fill="rgb(207, 207, 207)"
 d="M16.920,7.505 C16.842,8.019 16.678,8.517 16.439,8.983 L15.955,8.334 C15.845,8.187 15.634,8.153 15.480,8.258 C15.327,8.361 15.290,8.564 15.400,8.709 L16.077,9.619 C15.749,10.123 15.382,10.603 14.981,11.055 L14.032,10.022 C13.950,9.934 13.828,9.893 13.707,9.915 C13.589,9.937 13.491,10.020 13.450,10.130 C13.411,10.240 13.438,10.362 13.517,10.450 L14.534,11.555 C14.441,11.657 14.353,11.753 14.264,11.852 C13.932,12.214 13.583,12.576 13.227,12.934 L11.797,11.765 C11.705,11.686 11.573,11.659 11.456,11.696 C11.338,11.735 11.251,11.831 11.229,11.948 C11.208,12.067 11.256,12.185 11.354,12.259 L12.755,13.406 C12.308,13.842 11.841,14.275 11.362,14.701 L9.753,13.389 C9.661,13.313 9.534,13.291 9.418,13.330 C9.303,13.369 9.219,13.462 9.197,13.577 C9.175,13.690 9.218,13.807 9.310,13.882 L10.862,15.148 C10.383,15.560 9.888,15.965 9.386,16.366 C9.358,16.291 9.333,16.216 9.315,16.139 C9.177,15.386 8.436,14.875 7.645,14.989 C7.423,15.033 7.192,14.984 7.009,14.858 C6.827,14.732 6.708,14.539 6.682,14.324 C6.547,13.572 5.803,13.061 5.010,13.177 C4.909,13.188 4.807,13.188 4.704,13.179 C8.581,10.550 13.209,7.152 14.954,4.857 C15.380,4.429 15.632,3.869 15.662,3.281 C15.678,2.260 14.926,1.450 14.030,0.883 C14.403,1.054 14.750,1.275 15.059,1.540 C16.723,2.988 17.191,5.579 16.920,7.505 ZM14.981,3.245 C14.981,5.515 10.089,6.492 7.488,6.492 C3.427,6.492 -0.004,5.006 -0.004,3.245 C-0.004,1.485 3.427,-0.002 7.488,-0.002 C11.550,-0.002 14.981,1.485 14.981,3.245 ZM10.702,1.441 C9.952,0.988 9.125,0.659 8.258,0.472 C7.992,0.407 7.710,0.458 7.488,0.612 C7.352,0.705 7.245,0.832 7.178,0.978 C4.813,1.050 3.061,1.936 3.061,3.083 C3.061,4.629 5.786,5.194 7.478,5.194 C7.478,5.194 10.894,5.194 11.797,3.609 C12.249,2.814 11.497,1.953 10.702,1.441 ZM9.979,4.155 L10.101,1.845 C10.176,1.889 10.250,1.933 10.319,1.979 C10.771,2.269 11.415,2.861 11.181,3.330 C11.022,3.650 10.617,3.927 9.979,4.155 ZM7.536,4.544 L7.783,1.326 L7.783,1.319 C7.786,1.250 7.824,1.185 7.882,1.143 C7.942,1.103 8.017,1.088 8.088,1.103 C8.549,1.211 8.998,1.353 9.436,1.527 L9.287,4.355 C8.712,4.481 8.125,4.544 7.536,4.544 ZM8.851,2.921 C8.851,2.741 8.698,2.596 8.510,2.596 C8.322,2.596 8.169,2.741 8.169,2.921 L8.169,3.245 C8.169,3.425 8.322,3.570 8.510,3.570 C8.698,3.570 8.851,3.425 8.851,3.245 L8.851,2.921 ZM3.742,3.083 C3.742,2.441 5.092,1.723 7.075,1.632 L6.857,4.522 C4.980,4.392 3.742,3.697 3.742,3.083 ZM12.730,6.257 C10.640,8.095 8.434,9.810 6.126,11.393 L6.126,9.739 C6.126,9.560 5.974,9.415 5.786,9.415 C5.598,9.415 5.445,9.560 5.445,9.739 L5.445,11.555 C4.870,11.484 4.301,11.376 3.742,11.233 L3.742,9.415 C3.742,9.235 3.590,9.090 3.402,9.090 C3.214,9.090 3.061,9.235 3.061,9.415 L3.061,11.038 C2.589,10.888 2.133,10.698 1.699,10.470 L1.699,8.440 C1.699,8.261 1.546,8.116 1.358,8.116 C1.170,8.116 1.018,8.261 1.018,8.440 L1.018,10.042 C0.370,9.560 -0.004,9.010 -0.004,8.440 L-0.004,4.828 C1.246,6.203 4.093,7.142 7.488,7.142 C9.278,7.169 11.059,6.869 12.730,6.257 ZM4.049,13.621 C4.349,13.803 4.709,13.876 5.060,13.825 C5.280,13.781 5.511,13.827 5.693,13.952 C5.876,14.077 5.995,14.272 6.020,14.485 C6.156,15.237 6.899,15.750 7.692,15.637 C7.913,15.593 8.143,15.640 8.326,15.767 C8.508,15.892 8.627,16.085 8.652,16.297 C8.691,16.470 8.755,16.636 8.845,16.790 C8.361,17.163 7.868,17.529 7.366,17.884 C7.118,18.060 6.775,18.053 6.534,17.869 L3.112,15.259 C2.946,15.132 2.852,14.936 2.859,14.732 C2.866,14.527 2.974,14.338 3.150,14.221 C3.442,14.026 3.742,13.827 4.049,13.621 ZM4.551,15.513 L6.254,16.812 C6.325,16.866 6.415,16.892 6.504,16.881 C6.594,16.871 6.676,16.829 6.733,16.761 C6.790,16.693 6.816,16.607 6.805,16.523 C6.795,16.437 6.751,16.359 6.680,16.304 L4.977,15.006 C4.830,14.894 4.615,14.916 4.498,15.056 C4.381,15.197 4.404,15.401 4.551,15.513 Z"/>
</svg>