<svg 
 xmlns="http://www.w3.org/2000/svg"
 xmlns:xlink="http://www.w3.org/1999/xlink"
 width="17px" height="18px">
<path fill-rule="evenodd"  fill="rgb(207, 207, 207)"
 d="M15.442,18.000 L1.558,18.000 C0.698,18.000 -0.000,17.268 -0.000,16.377 L-0.000,3.616 C-0.000,2.742 0.683,2.030 1.513,2.004 L1.513,4.181 C1.513,5.166 2.284,5.959 3.235,5.959 L4.321,5.959 C5.271,5.959 6.052,5.166 6.052,4.181 L6.052,1.996 L10.947,1.996 L10.947,4.181 C10.947,5.166 11.729,5.959 12.679,5.959 L13.765,5.959 C14.716,5.959 15.487,5.166 15.487,4.181 L15.487,2.004 C16.317,2.030 17.000,2.742 17.000,3.616 L17.000,16.377 C17.000,17.267 16.301,18.000 15.442,18.000 ZM14.982,8.991 C14.982,8.606 14.681,8.293 14.309,8.293 L2.662,8.293 C2.289,8.293 1.988,8.606 1.988,8.991 L1.988,15.582 C1.988,15.967 2.289,16.280 2.662,16.280 L14.309,16.280 C14.681,16.280 14.982,15.967 14.982,15.582 L14.982,8.991 ZM12.630,15.327 L11.253,15.327 C11.035,15.327 10.858,15.145 10.858,14.919 L10.858,13.494 C10.858,13.268 11.035,13.086 11.253,13.086 L12.630,13.086 C12.848,13.086 13.025,13.268 13.025,13.494 L13.025,14.919 C13.025,15.145 12.848,15.327 12.630,15.327 ZM12.630,11.764 L11.253,11.764 C11.035,11.764 10.858,11.582 10.858,11.356 L10.858,9.930 C10.858,9.705 11.035,9.522 11.253,9.522 L12.630,9.522 C12.848,9.522 13.025,9.705 13.025,9.930 L13.025,11.356 C13.025,11.582 12.848,11.764 12.630,11.764 ZM9.189,15.327 L7.811,15.327 C7.594,15.327 7.417,15.145 7.417,14.919 L7.417,13.494 C7.417,13.268 7.594,13.086 7.811,13.086 L9.189,13.086 C9.406,13.086 9.583,13.268 9.583,13.494 L9.583,14.919 C9.583,15.145 9.406,15.327 9.189,15.327 ZM9.189,11.764 L7.811,11.764 C7.594,11.764 7.417,11.582 7.417,11.356 L7.417,9.930 C7.417,9.705 7.594,9.522 7.811,9.522 L9.189,9.522 C9.406,9.522 9.583,9.705 9.583,9.930 L9.583,11.356 C9.583,11.582 9.406,11.764 9.189,11.764 ZM5.747,15.327 L4.370,15.327 C4.152,15.327 3.975,15.145 3.975,14.919 L3.975,13.494 C3.975,13.268 4.152,13.086 4.370,13.086 L5.747,13.086 C5.965,13.086 6.141,13.268 6.141,13.494 L6.141,14.919 C6.141,15.145 5.965,15.327 5.747,15.327 ZM5.747,11.764 L4.370,11.764 C4.152,11.764 3.975,11.582 3.975,11.356 L3.975,9.930 C3.975,9.705 4.152,9.522 4.370,9.522 L5.747,9.522 C5.965,9.522 6.141,9.705 6.141,9.930 L6.141,11.356 C6.141,11.582 5.965,11.764 5.747,11.764 ZM13.740,4.791 L12.665,4.791 C12.339,4.791 12.075,4.518 12.075,4.180 L12.075,0.611 C12.075,0.273 12.339,-0.000 12.665,-0.000 L13.740,-0.000 C14.065,-0.000 14.330,0.273 14.330,0.611 L14.330,4.180 C14.330,4.518 14.065,4.791 13.740,4.791 ZM4.305,4.791 L3.231,4.791 C2.905,4.791 2.640,4.518 2.640,4.180 L2.640,0.611 C2.640,0.273 2.905,-0.000 3.231,-0.000 L4.305,-0.000 C4.631,-0.000 4.895,0.273 4.895,0.611 L4.895,4.180 C4.895,4.518 4.631,4.791 4.305,4.791 Z"/>
</svg>