<svg 
 xmlns="http://www.w3.org/2000/svg"
 xmlns:xlink="http://www.w3.org/1999/xlink"
 width="17px" height="20px">
<path fill-rule="evenodd"  fill="rgb(207, 207, 207)"
 d="M2.575,15.796 C-0.050,11.804 1.801,8.688 1.801,8.688 C1.372,8.556 -0.004,9.486 -0.004,9.486 C0.770,6.563 5.028,4.079 5.028,4.079 C4.555,3.898 3.220,4.254 3.220,4.254 C6.704,0.797 10.962,2.082 10.962,2.082 C11.090,1.330 13.195,-0.001 13.195,-0.001 C12.982,0.219 12.895,1.417 12.895,1.417 C13.108,1.020 13.797,0.620 13.797,0.620 C13.411,1.550 13.797,3.543 13.797,3.543 C14.915,4.696 16.162,8.688 16.162,8.688 L16.635,9.395 C17.239,10.284 17.018,11.681 16.423,12.012 C14.185,13.255 13.969,10.991 13.969,10.991 C12.121,10.772 10.746,8.643 10.746,8.643 C8.252,9.970 9.641,13.722 10.716,15.161 C12.100,17.009 11.087,19.996 11.087,19.996 C11.087,19.996 5.165,19.743 2.575,15.796 L2.575,15.796 Z"/>
</svg>