<svg 
 xmlns="http://www.w3.org/2000/svg"
 xmlns:xlink="http://www.w3.org/1999/xlink"
 width="23px" height="23px">
<path fill-rule="evenodd"  fill="rgb(204, 168, 112)"
 d="M17.283,23.002 L5.715,23.002 C2.560,23.002 -0.005,20.436 -0.005,17.282 L-0.005,5.714 C-0.005,2.560 2.560,-0.006 5.715,-0.006 L17.283,-0.006 C20.437,-0.006 23.003,2.560 23.003,5.714 L23.003,17.282 C23.003,20.436 20.437,23.002 17.283,23.002 ZM21.847,5.714 C21.847,3.198 19.799,1.151 17.283,1.151 L5.715,1.151 C3.199,1.151 1.151,3.198 1.151,5.714 L1.151,17.282 C1.151,19.798 3.199,21.846 5.715,21.846 L17.283,21.846 C19.799,21.846 21.847,19.798 21.847,17.282 L21.847,5.714 ZM17.779,5.705 C17.269,5.705 16.855,5.291 16.855,4.781 C16.855,4.271 17.269,3.857 17.779,3.857 C18.289,3.857 18.703,4.271 18.703,4.781 C18.703,5.291 18.289,5.705 17.779,5.705 ZM11.499,17.638 C8.114,17.638 5.360,14.884 5.360,11.498 C5.360,8.113 8.114,5.359 11.499,5.359 C14.884,5.359 17.639,8.113 17.639,11.498 C17.639,14.884 14.884,17.638 11.499,17.638 ZM11.499,6.516 C8.751,6.516 6.516,8.751 6.516,11.498 C6.516,14.246 8.751,16.481 11.499,16.481 C14.246,16.481 16.482,14.246 16.482,11.498 C16.482,8.751 14.246,6.516 11.499,6.516 Z"/>
</svg>