<svg 
 xmlns="http://www.w3.org/2000/svg"
 xmlns:xlink="http://www.w3.org/1999/xlink"
 width="15px" height="21px">
<path fill-rule="evenodd"  fill="rgb(242, 223, 193)"
 d="M7.500,-0.000 C3.364,-0.000 -0.000,3.506 -0.000,7.815 C-0.000,10.226 1.191,13.152 3.540,16.511 C5.259,18.970 6.953,20.724 7.024,20.797 C7.155,20.932 7.327,21.000 7.500,21.000 C7.668,21.000 7.835,20.936 7.965,20.808 C8.037,20.737 9.735,19.055 11.457,16.630 C13.808,13.320 15.000,10.354 15.000,7.815 C15.000,3.506 11.635,-0.000 7.500,-0.000 ZM7.500,11.189 C5.478,11.189 3.833,9.505 3.833,7.436 C3.833,5.366 5.478,3.682 7.500,3.682 C9.522,3.682 11.167,5.366 11.167,7.436 C11.167,9.505 9.522,11.189 7.500,11.189 Z"/>
</svg>