<svg 
 xmlns="http://www.w3.org/2000/svg"
 xmlns:xlink="http://www.w3.org/1999/xlink"
 width="20px" height="9px">
<path fill-rule="evenodd"  fill="rgb(204, 168, 112)"
 d="M19.821,4.522 C19.821,4.522 19.820,4.521 19.820,4.521 L16.474,1.163 C16.223,0.911 15.817,0.912 15.568,1.165 C15.318,1.418 15.319,1.827 15.570,2.079 L17.817,4.333 L0.640,4.333 C0.287,4.333 -0.000,4.622 -0.000,4.979 C-0.000,5.336 0.287,5.625 0.640,5.625 L17.817,5.625 L15.570,7.879 C15.319,8.131 15.318,8.540 15.568,8.793 C15.817,9.045 16.223,9.046 16.474,8.795 L19.820,5.437 C19.820,5.436 19.821,5.436 19.821,5.436 C20.072,5.184 20.071,4.773 19.821,4.522 L19.821,4.522 Z"/>
</svg>