<svg 
 xmlns="http://www.w3.org/2000/svg"
 xmlns:xlink="http://www.w3.org/1999/xlink"
 width="20px" height="9px">
<path fill-rule="evenodd"  fill="rgb(204, 168, 112)"
 d="M0.179,4.522 C0.179,4.522 0.179,4.521 0.180,4.521 L3.526,1.163 C3.777,0.911 4.183,0.912 4.432,1.165 C4.682,1.418 4.681,1.827 4.430,2.079 L2.183,4.333 L19.360,4.333 C19.713,4.333 20.000,4.622 20.000,4.979 C20.000,5.336 19.713,5.625 19.360,5.625 L2.183,5.625 L4.430,7.879 C4.681,8.131 4.682,8.540 4.432,8.793 C4.183,9.045 3.777,9.046 3.526,8.795 L0.180,5.437 C0.179,5.436 0.179,5.436 0.179,5.436 C-0.072,5.184 -0.071,4.773 0.179,4.522 L0.179,4.522 Z"/>
</svg>