<svg id="Слой_1" data-name="Слой 1" xmlns="http://www.w3.org/2000/svg" width="409.6" height="409.6" viewBox="0 0 409.6 409.6">
  <title>russia</title>
  <g>
    <path d="M1204.6,999.8c0,113.11-91.69,204.8-204.8,204.8S795,1112.91,795,999.8,886.69,795,999.8,795s204.8,91.69,204.8,204.8Zm0,0" transform="translate(-795 -795)" style="fill: #f0f0f0"/>
    <path d="M1191.86,1071a205.52,205.52,0,0,0,0-142.47H807.74a205.52,205.52,0,0,0,0,142.47l192.06,17.8Zm0,0" transform="translate(-795 -795)" style="fill: #0052b4"/>
    <path d="M999.8,1204.6A204.88,204.88,0,0,0,1191.86,1071H807.74A204.88,204.88,0,0,0,999.8,1204.6Zm0,0" transform="translate(-795 -795)" style="fill: #d80027"/>
  </g>
</svg>
