<svg 
 xmlns="http://www.w3.org/2000/svg"
 xmlns:xlink="http://www.w3.org/1999/xlink"
 width="21px" height="21px">
<path fill-rule="evenodd"  fill="rgb(242, 223, 193)"
 d="M19.342,13.827 C18.047,13.827 16.778,13.625 15.575,13.228 C14.988,13.025 14.322,13.181 13.936,13.575 L11.552,15.375 C8.817,13.915 7.066,12.166 5.626,9.450 L7.378,7.122 C7.819,6.681 7.977,6.036 7.788,5.431 C7.387,4.221 7.184,2.951 7.184,1.658 C7.184,0.744 6.440,-0.000 5.526,-0.000 L1.658,-0.000 C0.744,-0.000 -0.000,0.744 -0.000,1.658 C-0.000,12.323 8.677,21.000 19.342,21.000 C20.256,21.000 21.000,20.256 21.000,19.342 L21.000,15.485 C21.000,14.571 20.256,13.827 19.342,13.827 Z"/>
</svg>