<svg 
 xmlns="http://www.w3.org/2000/svg"
 xmlns:xlink="http://www.w3.org/1999/xlink"
 width="12px" height="16px">
<path fill-rule="evenodd"  fill="rgb(204, 168, 112)"
 d="M9.749,16.000 C9.743,16.000 9.737,16.000 9.731,16.000 C7.920,15.985 4.406,13.495 2.258,9.945 L2.217,9.873 L2.479,9.638 L2.173,9.804 C0.026,6.254 -0.466,2.123 0.437,0.636 C0.754,0.114 1.170,0.002 1.463,-0.000 L3.746,0.097 C4.062,0.115 4.340,0.287 4.511,0.570 L4.536,0.617 C4.686,0.859 4.692,1.043 4.703,1.422 C4.707,1.564 4.712,1.744 4.726,1.981 C4.775,2.381 4.843,2.909 4.914,3.262 C5.015,3.767 4.721,4.262 4.245,4.388 L3.649,4.538 C3.540,4.566 3.444,4.636 3.389,4.730 C3.283,4.907 3.493,5.887 4.502,7.764 C4.658,8.054 4.794,8.291 4.878,8.431 C4.962,8.569 5.109,8.799 5.294,9.074 C6.494,10.848 7.280,11.514 7.494,11.518 C7.606,11.519 7.720,11.478 7.802,11.401 L8.237,10.995 C8.595,10.667 9.194,10.676 9.603,11.014 C9.889,11.251 10.336,11.573 10.693,11.828 C10.884,11.947 11.046,12.042 11.173,12.117 C11.520,12.322 11.685,12.420 11.832,12.677 L11.852,12.706 C12.023,12.989 12.040,13.303 11.897,13.566 L10.839,15.468 C10.681,15.720 10.373,16.000 9.749,16.000 ZM2.801,9.500 L2.850,9.581 C5.002,13.140 8.307,15.321 9.737,15.333 C10.132,15.327 10.195,15.190 10.225,15.142 L11.272,13.259 C11.299,13.210 11.294,13.141 11.258,13.068 L11.222,13.010 C11.163,12.902 11.139,12.883 10.801,12.683 C10.669,12.606 10.503,12.507 10.287,12.373 C9.902,12.099 9.443,11.766 9.140,11.516 C8.996,11.397 8.811,11.396 8.729,11.471 L8.296,11.876 C8.079,12.078 7.786,12.178 7.481,12.184 C7.252,12.181 6.552,12.170 4.701,9.433 C4.508,9.147 4.356,8.908 4.267,8.763 C4.178,8.615 4.038,8.369 3.875,8.067 C2.318,5.171 2.662,4.594 2.775,4.403 C2.922,4.155 3.174,3.969 3.467,3.894 L4.059,3.745 C4.165,3.717 4.258,3.565 4.223,3.386 C4.147,3.013 4.077,2.469 4.025,2.037 C4.009,1.773 4.003,1.587 3.999,1.440 C3.988,1.062 3.983,1.033 3.914,0.930 L3.877,0.856 C3.849,0.817 3.780,0.767 3.710,0.763 L1.450,0.666 C1.409,0.667 1.229,0.668 1.047,0.969 C0.335,2.143 0.651,5.946 2.784,9.473 L2.479,9.638 L2.801,9.500 Z"/>
</svg>