<svg 
 xmlns="http://www.w3.org/2000/svg"
 xmlns:xlink="http://www.w3.org/1999/xlink"
 width="20px" height="20px">
<path fill-rule="evenodd"  fill="rgb(242, 223, 193)"
 d="M10.002,-0.000 L9.997,-0.000 L9.997,-0.000 C4.484,-0.000 -0.000,4.485 -0.000,10.000 C-0.000,12.187 0.705,14.215 1.904,15.861 L0.657,19.576 L4.501,18.347 C6.082,19.395 7.969,20.000 10.002,20.000 C15.516,20.000 20.000,15.514 20.000,10.000 C20.000,4.486 15.516,-0.000 10.002,-0.000 ZM15.821,14.121 C15.580,14.802 14.622,15.367 13.859,15.532 C13.336,15.644 12.654,15.732 10.356,14.780 C7.417,13.562 5.525,10.576 5.377,10.382 C5.236,10.189 4.190,8.801 4.190,7.366 C4.190,5.931 4.919,5.232 5.212,4.932 C5.454,4.686 5.852,4.574 6.235,4.574 C6.359,4.574 6.470,4.580 6.570,4.585 C6.864,4.597 7.011,4.615 7.205,5.079 C7.446,5.660 8.034,7.095 8.104,7.242 C8.175,7.390 8.246,7.590 8.146,7.784 C8.052,7.984 7.970,8.072 7.822,8.242 C7.675,8.412 7.535,8.542 7.387,8.725 C7.252,8.884 7.100,9.054 7.270,9.347 C7.440,9.635 8.027,10.594 8.892,11.364 C10.009,12.357 10.914,12.675 11.237,12.810 C11.479,12.910 11.766,12.886 11.942,12.699 C12.166,12.457 12.442,12.057 12.724,11.664 C12.924,11.381 13.176,11.346 13.441,11.446 C13.711,11.540 15.140,12.246 15.434,12.392 C15.727,12.540 15.921,12.610 15.992,12.734 C16.062,12.857 16.062,13.439 15.821,14.121 Z"/>
</svg>